<mxfile host="65bd71144e">
    <diagram id="-iABZ8pMl5v7mlR43zbo" name="Page-1">
        <mxGraphModel dx="406" dy="480" grid="1" gridSize="10" guides="1" tooltips="1" connect="1" arrows="1" fold="1" page="1" pageScale="1" pageWidth="850" pageHeight="1100" math="0" shadow="0">
            <root>
                <mxCell id="0"/>
                <mxCell id="1" parent="0"/>
                <mxCell id="4" style="edgeStyle=none;html=1;entryX=0.5;entryY=0;entryDx=0;entryDy=0;" edge="1" parent="1" source="2" target="3">
                    <mxGeometry relative="1" as="geometry"/>
                </mxCell>
                <mxCell id="2" value="Client" style="rounded=0;whiteSpace=wrap;html=1;" vertex="1" parent="1">
                    <mxGeometry x="250" y="80" width="120" height="60" as="geometry"/>
                </mxCell>
                <mxCell id="6" style="edgeStyle=none;html=1;entryX=0.5;entryY=0;entryDx=0;entryDy=0;" edge="1" parent="1" source="3" target="5">
                    <mxGeometry relative="1" as="geometry"/>
                </mxCell>
                <mxCell id="3" value="urls.py" style="rounded=0;whiteSpace=wrap;html=1;" vertex="1" parent="1">
                    <mxGeometry x="285" y="230" width="50" height="30" as="geometry"/>
                </mxCell>
                <mxCell id="17" style="edgeStyle=none;html=1;entryX=0.5;entryY=0;entryDx=0;entryDy=0;" edge="1" parent="1" source="5" target="16">
                    <mxGeometry relative="1" as="geometry"/>
                </mxCell>
                <mxCell id="5" value="views.py" style="rounded=0;whiteSpace=wrap;html=1;" vertex="1" parent="1">
                    <mxGeometry x="270" y="290" width="80" height="40" as="geometry"/>
                </mxCell>
                <mxCell id="7" value="models.py" style="rounded=0;whiteSpace=wrap;html=1;" vertex="1" parent="1">
                    <mxGeometry x="270" y="400" width="80" height="40" as="geometry"/>
                </mxCell>
                <mxCell id="11" value="" style="shape=flexArrow;endArrow=classic;startArrow=classic;html=1;entryX=0.5;entryY=1;entryDx=0;entryDy=0;" edge="1" parent="1" target="5">
                    <mxGeometry width="100" height="100" relative="1" as="geometry">
                        <mxPoint x="310" y="400" as="sourcePoint"/>
                        <mxPoint x="410" y="280" as="targetPoint"/>
                    </mxGeometry>
                </mxCell>
                <mxCell id="16" value=".html file" style="rounded=0;whiteSpace=wrap;html=1;" vertex="1" parent="1">
                    <mxGeometry x="385" y="350" width="80" height="40" as="geometry"/>
                </mxCell>
                <mxCell id="18" value="Client/User mengirim request ke server Django" style="text;html=1;align=center;verticalAlign=middle;resizable=0;points=[];autosize=1;strokeColor=default;rounded=1;" vertex="1" parent="1">
                    <mxGeometry x="390" y="95" width="270" height="30" as="geometry"/>
                </mxCell>
                <mxCell id="19" value="urls.py menerima request dan meneruskan ke views.py" style="text;html=1;align=center;verticalAlign=middle;resizable=0;points=[];autosize=1;strokeColor=default;rounded=1;" vertex="1" parent="1">
                    <mxGeometry x="365" y="230" width="320" height="30" as="geometry"/>
                </mxCell>
                <mxCell id="20" value="jika pola url cocok, maka berinteraksi dengan models.py&lt;div&gt;dimana terdapat struktur database&amp;nbsp;&amp;nbsp;&lt;/div&gt;" style="text;html=1;align=center;verticalAlign=middle;resizable=0;points=[];autosize=1;strokeColor=default;rounded=1;" vertex="1" parent="1">
                    <mxGeometry x="385" y="290" width="320" height="40" as="geometry"/>
                </mxCell>
                <mxCell id="21" value="data dari models.py akan diterima oleh .html file dan akan dikirim balik&lt;div&gt;&amp;nbsp;agar client dapat melihatnya dalam bentuk webpage&lt;/div&gt;" style="text;html=1;align=center;verticalAlign=middle;resizable=0;points=[];autosize=1;strokeColor=default;rounded=1;" vertex="1" parent="1">
                    <mxGeometry x="480" y="350" width="400" height="40" as="geometry"/>
                </mxCell>
            </root>
        </mxGraphModel>
    </diagram>
</mxfile>